<svg width="512" height="512" viewBox="0 0 512 512" fill="none" xmlns="http://www.w3.org/2000/svg">
<path d="M511.976 416.063C511.971 415.988 511.972 415.914 511.965 415.839C511.938 415.542 511.895 415.251 511.834 414.966C511.828 414.938 511.819 414.91 511.812 414.882C511.753 414.62 511.68 414.364 511.594 414.114C511.571 414.047 511.546 413.982 511.521 413.916C511.437 413.689 511.342 413.468 511.237 413.253C511.219 413.215 511.207 413.176 511.188 413.138L471.076 334.02V73.72C471.076 65.714 464.563 59.201 456.557 59.201H55.441C47.435 59.201 40.922 65.714 40.922 73.72V334.018L0.811 413.137C0.792 413.175 0.78 413.214 0.762 413.252C0.657 413.467 0.563 413.688 0.478 413.914C0.453 413.98 0.428 414.046 0.405 414.113C0.32 414.364 0.246 414.621 0.187 414.883C0.181 414.91 0.172 414.937 0.166 414.964C0.105 415.25 0.062 415.541 0.035 415.838C0.028 415.912 0.028 415.987 0.024 416.061C0.014 416.217 0 416.371 0 416.529V435.555C0 445.064 7.735 452.799 17.244 452.799H494.756C504.265 452.799 512 445.064 512 435.555V416.529C512 416.371 511.986 416.217 511.976 416.063ZM55.923 74.203H456.077V328.312H55.923V74.203ZM53.029 343.311H458.97L492.288 409.028H327.508L319.237 379.039C317.553 372.934 311.955 368.67 305.622 368.67H206.376C200.043 368.67 194.444 372.934 192.761 379.038L184.49 409.028H19.711L53.029 343.311ZM311.948 409.029H200.052L207.045 383.671H304.955L311.948 409.029ZM497 435.554C497 436.791 495.993 437.798 494.756 437.798H17.244C16.007 437.798 15 436.791 15 435.554V424.028H497V435.554Z" fill="#98927B"/>
<path d="M432.577 213.756C428.434 213.756 425.077 217.113 425.077 221.256V297.311H86.923V221.256C86.923 217.113 83.566 213.756 79.423 213.756C75.28 213.756 71.923 217.113 71.923 221.256V300.55C71.923 307.035 77.198 312.311 83.684 312.311H428.317C434.802 312.311 440.078 307.036 440.078 300.55V221.256C440.077 217.115 436.72 213.756 432.577 213.756Z" fill="#98927B"/>
<path d="M428.316 90.203H83.684C77.199 90.203 71.923 95.478 71.923 101.964V181.258C71.923 185.401 75.28 188.758 79.423 188.758C83.566 188.758 86.923 185.401 86.923 181.258V105.203H425.077V181.258C425.077 185.401 428.434 188.758 432.577 188.758C436.72 188.758 440.077 185.401 440.077 181.258V101.964C440.077 95.477 434.802 90.203 428.316 90.203Z" fill="#98927B"/>
</svg>
