<svg width="512" height="512" viewBox="0 0 512 512" fill="none" xmlns="http://www.w3.org/2000/svg">
<path d="M492.904 328.856C491.069 328.856 489.309 328.127 488.011 326.83C486.714 325.532 485.985 323.772 485.985 321.937V301.388C485.985 299.553 486.714 297.793 488.011 296.496C489.309 295.198 491.069 294.469 492.904 294.469C494.739 294.469 496.499 295.198 497.796 296.496C499.094 297.793 499.823 299.553 499.823 301.388V321.937C499.823 323.772 499.094 325.532 497.796 326.83C496.499 328.127 494.739 328.856 492.904 328.856Z" fill="#98927B"/>
<path d="M472.147 498.231H43.174C35.8368 498.222 28.8027 495.303 23.6145 490.115C18.4263 484.927 15.5075 477.893 15.4984 470.556V41.5827C15.4984 34.2426 18.4142 27.2032 23.6044 22.013C28.7946 16.8228 35.834 13.907 43.174 13.907H472.147C479.487 13.907 486.526 16.8228 491.717 22.013C496.907 27.2032 499.823 34.2426 499.823 41.5827V252.956C499.823 254.791 499.094 256.551 497.796 257.848C496.499 259.146 494.739 259.875 492.904 259.875C491.069 259.875 489.309 259.146 488.011 257.848C486.714 256.551 485.985 254.791 485.985 252.956V41.5827C485.985 37.9127 484.527 34.393 481.932 31.7979C479.337 29.2028 475.817 27.7449 472.147 27.7449H43.174C39.504 27.7449 35.9843 29.2028 33.3892 31.7979C30.7941 34.393 29.3362 37.9127 29.3362 41.5827V470.556C29.3362 474.226 30.7941 477.745 33.3892 480.341C35.9843 482.936 39.504 484.394 43.174 484.394H472.147C475.817 484.394 479.337 482.936 481.932 480.341C484.527 477.745 485.985 474.226 485.985 470.556V438.936C485.985 437.101 486.714 435.341 488.011 434.044C489.309 432.746 491.069 432.017 492.904 432.017C494.739 432.017 496.499 432.746 497.796 434.044C499.094 435.341 499.823 437.101 499.823 438.936V470.556C499.823 477.896 496.907 484.935 491.717 490.125C486.526 495.315 479.487 498.231 472.147 498.231Z" fill="#98927B"/>
<path d="M492.904 397.423C491.069 397.423 489.309 396.694 488.011 395.396C486.714 394.099 485.985 392.339 485.985 390.504V370.37C485.985 368.535 486.714 366.775 488.011 365.477C489.309 364.18 491.069 363.451 492.904 363.451C494.739 363.451 496.499 364.18 497.796 365.477C499.094 366.775 499.823 368.535 499.823 370.37V390.504C499.823 392.339 499.094 394.099 497.796 395.396C496.499 396.694 494.739 397.423 492.904 397.423Z" fill="#98927B"/>
<path d="M492.904 145.366H22.4173C20.5823 145.366 18.8224 144.637 17.5249 143.34C16.2273 142.042 15.4984 140.283 15.4984 138.448C15.4984 136.613 16.2273 134.853 17.5249 133.555C18.8224 132.258 20.5823 131.529 22.4173 131.529H492.904C494.739 131.529 496.499 132.258 497.796 133.555C499.094 134.853 499.823 136.613 499.823 138.448C499.823 140.283 499.094 142.042 497.796 143.34C496.499 144.637 494.739 145.366 492.904 145.366Z" fill="#98927B"/>
<path d="M434.224 108.108C428.861 108.108 423.619 106.518 419.159 103.538C414.7 100.558 411.225 96.3229 409.173 91.3678C407.12 86.4127 406.584 80.9604 407.631 75.7004C408.677 70.4404 411.261 65.6089 415.053 61.817C418.846 58.0252 423.678 55.4432 428.939 54.3978C434.199 53.3523 439.651 53.8903 444.606 55.9436C449.56 57.997 453.795 61.4735 456.773 65.9335C459.752 70.3934 461.341 75.6366 461.34 80.9998C461.331 88.1877 458.471 95.0786 453.387 100.161C448.304 105.243 441.412 108.101 434.224 108.108ZM434.224 67.7224C431.598 67.7224 429.031 68.5011 426.848 69.96C424.664 71.419 422.963 73.4926 421.958 75.9187C420.953 78.3449 420.69 81.0145 421.202 83.5901C421.714 86.1656 422.979 88.5314 424.836 90.3883C426.693 92.2452 429.059 93.5097 431.634 94.022C434.21 94.5344 436.879 94.2714 439.305 93.2665C441.732 92.2616 443.805 90.5598 445.264 88.3763C446.723 86.1928 447.502 83.6258 447.502 80.9998C447.5 77.4789 446.101 74.1029 443.611 71.6133C441.121 69.1237 437.745 67.7242 434.224 67.7224Z" fill="#98927B"/>
<path d="M362.953 108.108C357.589 108.109 352.346 106.52 347.886 103.541C343.425 100.562 339.949 96.3275 337.896 91.3726C335.843 86.4177 335.305 80.9651 336.351 75.7046C337.397 70.4441 339.98 65.612 343.772 61.8195C347.565 58.0269 352.397 55.4443 357.658 54.3983C362.918 53.3523 368.371 53.8898 373.325 55.943C378.28 57.9961 382.515 61.4726 385.494 65.9327C388.473 70.3929 390.062 75.6363 390.061 80.9998C390.052 88.1865 387.193 95.0763 382.111 100.158C377.029 105.24 370.139 108.099 362.953 108.108ZM362.953 67.7224C360.326 67.721 357.759 68.4985 355.574 69.9566C353.39 71.4148 351.687 73.4879 350.681 75.9139C349.675 78.3399 349.411 81.0098 349.923 83.5858C350.434 86.1618 351.698 88.5283 353.555 90.3859C355.411 92.2434 357.777 93.5087 360.353 94.0215C362.929 94.5344 365.599 94.2719 368.025 93.2672C370.452 92.2624 372.526 90.5606 373.985 88.377C375.444 86.1934 376.223 83.6261 376.223 80.9998C376.219 77.4807 374.82 74.1067 372.333 71.6177C369.845 69.1287 366.472 67.7279 362.953 67.7224Z" fill="#98927B"/>
<path d="M291.674 108.108C286.311 108.108 281.068 106.518 276.609 103.538C272.15 100.558 268.674 96.3229 266.622 91.3678C264.57 86.4127 264.033 80.9604 265.08 75.7004C266.127 70.4404 268.71 65.6089 272.503 61.817C276.296 58.0252 281.128 55.4432 286.388 54.3978C291.649 53.3523 297.101 53.8903 302.055 55.9436C307.01 57.997 311.244 61.4735 314.223 65.9335C317.201 70.3934 318.791 75.6366 318.789 80.9998C318.78 88.1877 315.92 95.0786 310.837 100.161C305.753 105.243 298.862 108.101 291.674 108.108ZM291.674 67.7224C289.048 67.7224 286.481 68.5011 284.297 69.96C282.114 71.419 280.412 73.4926 279.407 75.9187C278.402 78.3449 278.139 81.0145 278.652 83.5901C279.164 86.1656 280.429 88.5314 282.285 90.3883C284.142 92.2452 286.508 93.5097 289.084 94.022C291.659 94.5344 294.329 94.2714 296.755 93.2665C299.181 92.2616 301.255 90.5598 302.714 88.3763C304.173 86.1928 304.951 83.6258 304.951 80.9998C304.948 77.4795 303.548 74.1045 301.058 71.6153C298.569 69.1261 295.194 67.726 291.674 67.7224Z" fill="#98927B"/>
<path d="M231.493 87.9187H60.8865C59.0515 87.9187 57.2916 87.1898 55.9941 85.8922C54.6965 84.5947 53.9676 82.8348 53.9676 80.9998C53.9676 79.1648 54.6965 77.4049 55.9941 76.1074C57.2916 74.8098 59.0515 74.0809 60.8865 74.0809H231.493C233.328 74.0809 235.088 74.8098 236.386 76.1074C237.683 77.4049 238.412 79.1648 238.412 80.9998C238.412 82.8348 237.683 84.5947 236.386 85.8922C235.088 87.1898 233.328 87.9187 231.493 87.9187Z" fill="#98927B"/>
<path d="M335.139 415.204H327.798C325.963 415.204 324.203 414.475 322.905 413.178C321.608 411.88 320.879 410.12 320.879 408.285C320.879 406.45 321.608 404.691 322.905 403.393C324.203 402.096 325.963 401.367 327.798 401.367H335.139C336.72 401.367 338.237 400.738 339.356 399.62C340.474 398.501 341.103 396.984 341.103 395.402V352.74C341.09 347.566 343.116 342.594 346.742 338.903L366.156 319.038C367.227 317.921 367.825 316.434 367.825 314.887C367.825 313.34 367.227 311.852 366.156 310.736L346.783 290.878C343.155 287.188 341.126 282.216 341.137 277.04V234.344C341.135 232.763 340.507 231.247 339.388 230.129C338.27 229.01 336.754 228.382 335.173 228.38H327.798C325.963 228.38 324.203 227.651 322.905 226.353C321.608 225.056 320.879 223.296 320.879 221.461C320.879 219.626 321.608 217.866 322.905 216.568C324.203 215.271 325.963 214.542 327.798 214.542H335.139C340.389 214.547 345.422 216.635 349.135 220.348C352.847 224.06 354.935 229.094 354.941 234.344V277.006C354.938 278.559 355.547 280.05 356.636 281.157L376.05 301.015C379.638 304.727 381.644 309.689 381.644 314.852C381.644 320.016 379.638 324.977 376.05 328.69L356.636 348.575C355.55 349.684 354.941 351.174 354.941 352.727V395.389C354.939 400.641 352.852 405.678 349.139 409.394C345.427 413.109 340.391 415.199 335.139 415.204Z" fill="#98927B"/>
<path d="M193.951 415.204H180.169C174.92 415.197 169.888 413.108 166.177 409.396C162.466 405.684 160.379 400.651 160.374 395.402V352.74C160.373 351.187 159.762 349.696 158.672 348.589L139.25 328.725C135.667 325.009 133.664 320.049 133.664 314.887C133.664 309.725 135.667 304.765 139.25 301.049L158.665 281.199C159.755 280.092 160.367 278.601 160.367 277.047V234.344C160.372 229.095 162.459 224.062 166.17 220.35C169.881 216.638 174.913 214.549 180.162 214.542H193.944C195.779 214.542 197.539 215.271 198.837 216.568C200.134 217.866 200.863 219.626 200.863 221.461C200.863 223.296 200.134 225.056 198.837 226.353C197.539 227.651 195.779 228.38 193.944 228.38H180.169C178.589 228.383 177.074 229.013 175.958 230.131C174.841 231.249 174.213 232.764 174.211 234.344V277.006C174.221 282.182 172.19 287.154 168.559 290.844L149.186 310.694C148.115 311.811 147.517 313.298 147.517 314.845C147.517 316.393 148.115 317.88 149.186 318.997L168.607 338.861C172.23 342.555 174.255 347.525 174.246 352.699V395.361C174.246 396.941 174.873 398.457 175.99 399.576C177.107 400.694 178.623 401.323 180.203 401.325H193.986C195.821 401.325 197.581 402.054 198.878 403.352C200.176 404.649 200.905 406.409 200.905 408.244C200.905 410.079 200.176 411.839 198.878 413.136C197.581 414.434 195.821 415.163 193.986 415.163L193.951 415.204Z" fill="#98927B"/>
<path d="M233.375 401.366C232.69 401.367 232.009 401.264 231.355 401.062C229.6 400.527 228.129 399.317 227.266 397.697C226.403 396.078 226.219 394.182 226.754 392.427L275.325 233.292C275.86 231.537 277.072 230.066 278.691 229.204C279.494 228.777 280.372 228.513 281.276 228.425C282.181 228.338 283.094 228.429 283.963 228.694C284.832 228.96 285.64 229.394 286.342 229.971C287.043 230.549 287.624 231.259 288.051 232.061C288.478 232.864 288.742 233.742 288.83 234.646C288.917 235.551 288.826 236.464 288.56 237.333L239.99 396.468C239.557 397.885 238.681 399.126 237.49 400.008C236.299 400.89 234.857 401.366 233.375 401.366Z" fill="#98927B"/>
</svg>
